<svg width="16" height="16" xmlns="http://www.w3.org/2000/svg" shape-rendering="crispEdges">
  <path fill="#38342a" d="M9 1h1v1H9zM8 2h1v2H8z"/>
  <path fill="#dbd0b4" d="M9 2h1v1H9z"/>
  <path fill="#38342a" d="M10 2h1v1h-1z"/>
  <path fill="#bcb29c" d="M9 3h1v1H9z"/>
  <path fill="#dbd0b4" d="M10 3h1v1h-1z"/>
  <path fill="#38342a" d="M11 3h1v1h-1zM7 4h1v1H7z"/>
  <path fill="#dbd0b4" d="M8 4h1v2H8z"/>
  <path fill="#38342a" d="M9 4h1v1H9z"/>
  <path fill="#bcb29c" d="M10 4h1v1h-1z"/>
  <path fill="#dbd0b4" d="M11 4h1v1h-1z"/>
  <path fill="#38342a" d="M12 4h1v1h-1zM6 5h1v1H6z"/>
  <path fill="#c6bca5" d="M7 5h1v1H7z"/>
  <path fill="#dbd0b4" d="M9 5h1v2H9z"/>
  <path fill="#38342a" d="M10 5h1v1h-1z"/>
  <path fill="#bcb29c" d="M11 5h1v1h-1z"/>
  <path fill="#dbd0b4" d="M12 5h1v1h-1z"/>
  <path fill="#38342a" d="M13 5h1v2h-1zM5 6h1v1H5z"/>
  <path fill="#dbd0b4" d="M6 6h2v2H6z"/>
  <path fill="#c6bca5" d="M8 6h1v1H8z"/>
  <path fill="#dbd0b4" d="M10 6h1v1h-1z"/>
  <path fill="#38342a" d="M11 6h1v1h-1z"/>
  <path fill="#bcb29c" d="M12 6h1v1h-1z"/>
  <path fill="#38342a" d="M14 6h1v2h-1zM4 7h1v1H4z"/>
  <path fill="#dbd0b4" d="M5 7h1v4H5zm3 0h1v2H8z"/>
  <path fill="#c6bca5" d="M9 7h2v1H9z"/>
  <path fill="#bcb29c" d="M11 7h1v2h-1z"/>
  <path fill="#38342a" d="M12 7h1v2h-1z"/>
  <path fill="#807a6d" d="M13 7h1v1h-1z"/>
  <path fill="#38342a" d="M3 8h1v1H3z"/>
  <path fill="#dbd0b4" d="M4 8h1v2H4z"/>
  <path fill="#c6bca5" d="M6 8h1v1H6z"/>
  <path fill="#dbd0b4" d="M7 8h1v1H7zm2 0h1v2H9z"/>
  <path fill="#bcb29c" d="M10 8h1v2h-1z"/>
  <path fill="#38342a" d="M13 8h1v1h-1zM2 9h1v2H2z"/>
  <path fill="#aea694" d="M3 9h1v1H3z"/>
  <path fill="#dbd0b4" d="M6 9h1v3H6z"/>
  <path fill="#c6bca5" d="M7 9h2v1H7z"/>
  <path fill="#38342a" d="M11 9h1v1h-1z"/>
  <path fill="#9a927e" d="M3 10h1v1H3z"/>
  <path fill="#aea694" d="M4 10h1v1H4z"/>
  <path fill="#dbd0b4" d="M7 10h1v2H7z"/>
  <path fill="#bcb29c" d="M8 10h2v1H8z"/>
  <path fill="#38342a" d="M10 10h1v1h-1zm-7 1h1v1H3z"/>
  <path fill="#9a927e" d="M4 11h1v1H4z"/>
  <path fill="#aea694" d="M5 11h1v1H5z"/>
  <path fill="#bcb29c" d="M8 11h1v1H8z"/>
  <path fill="#38342a" d="M9 11h1v1H9zm-5 1h1v1H4z"/>
  <path fill="#9a927e" d="M5 12h1v1H5z"/>
  <path fill="#aea694" d="M6 12h1v1H6z"/>
  <path fill="#bcb29c" d="M7 12h1v1H7z"/>
  <path fill="#38342a" d="M8 12h1v2H8zm-3 1h1v1H5z"/>
  <path fill="#9a927e" d="M6 13h1v1H6z"/>
  <path fill="#38342a" d="M7 13h1v2H7zm-1 1h1v1H6z"/>
</svg>